<?xml version="1.0" standalone="no"?>
<!DOCTYPE svg PUBLIC "-//W3C//DTD SVG 20010904//EN"
 "http://www.w3.org/TR/2001/REC-SVG-20010904/DTD/svg10.dtd">
<svg version="1.0" xmlns="http://www.w3.org/2000/svg"
 width="250.000000pt" height="250.000000pt" viewBox="0 0 250.000000 250.000000"
 preserveAspectRatio="xMidYMid meet">
<metadata>
Created by potrace 1.11, written by Peter Selinger 2001-2013
</metadata>
<g transform="translate(0.000000,250.000000) scale(0.100000,-0.100000)"
fill="#000000" stroke="none">
<path d="M1090 1250 l0 -1248 129 1 129 0 1 1244 c1 683 -2 1244 -6 1244 -5 1
-63 3 -130 5 l-123 2 0 -1248z"/>
<path d="M1880 2094 c-147 -39 -251 -153 -283 -309 -26 -126 -10 -262 43 -366
43 -84 81 -129 224 -268 229 -223 252 -247 275 -296 29 -59 38 -148 21 -200
-27 -82 -108 -135 -184 -121 -79 15 -152 134 -160 261 -1 9 -62 9 -166 0 -14
-1 -42 -3 -63 -4 -21 0 -36 -4 -34 -8 3 -5 8 -35 12 -68 19 -170 120 -332 242
-390 97 -46 261 -56 369 -21 129 40 238 176 260 323 22 147 0 255 -80 388 -58
97 -112 156 -262 287 -185 160 -253 295 -221 440 20 93 113 145 194 108 44
-19 88 -90 99 -158 8 -48 -8 -47 159 -16 125 24 115 14 98 92 -37 164 -125
268 -268 317 -67 23 -205 27 -275 9z"/>
<path d="M104 2081 c-2 -2 -4 -403 -4 -891 l0 -887 367 1 368 1 0 133 c0 111
-2 132 -15 133 -8 0 -113 1 -232 1 l-218 0 0 757 0 756 -131 0 c-72 0 -132 -2
-135 -4z"/>
</g>
</svg>
